HIERARCHY
ROOT Hips
{
     OFFSET 1.88212 96.90440 -13.34250
     CHANNELS 6 Xposition Yposition Zposition Zrotation Xrotation Yrotation
     JOINT Spine
     {
          OFFSET 0.00000 11.89050 0.00000
          CHANNELS 3 Zrotation Xrotation Yrotation
          JOINT Spine1
          {
               OFFSET -0.00000 25.65740 0.12766
               CHANNELS 3 Zrotation Xrotation Yrotation
               JOINT HEad
               {
                    OFFSET 0.00000 8.73416 0.01134
                    CHANNELS 3 Zrotation Xrotation Yrotation
                    End Site
                    {
                         OFFSET -0.29000 12.77420 2.51395
                    }
               }
               JOINT LeftShoulder1
               {
                    OFFSET 8.99000 -0.36225 -0.22000
                    CHANNELS 3 Zrotation Xrotation Yrotation
                    JOINT LeftArm
                    {
                         OFFSET 10.28270 -0.00338 0.32212
                         CHANNELS 3 Zrotation Xrotation Yrotation
                         JOINT LeftForeArm
                         {
                              OFFSET 32.76690 0.09914 -1.42434
                              CHANNELS 3 Zrotation Xrotation Yrotation
                              JOINT LeftHand
                              {
                                   OFFSET 27.56430 0.08536 1.02216
                                   CHANNELS 3 Zrotation Xrotation Yrotation
                                   End Site
                                   {
                                        OFFSET 16.74430 -0.60000 1.50291
                                   }
                              }
                         }
                    }
               }
               JOINT RightShoulder
               {
                    OFFSET -8.99000 -0.36225 -0.22000
                    CHANNELS 3 Zrotation Xrotation Yrotation
                    JOINT RightArm
                    {
                         OFFSET -10.28270 -0.00338 0.32212
                         CHANNELS 3 Zrotation Xrotation Yrotation
                         JOINT RightForeArm
                         {
                              OFFSET -32.89710 0.09914 -1.42434
                              CHANNELS 3 Zrotation Xrotation Yrotation
                              JOINT RightHand
                              {
                                   OFFSET -27.49210 0.08536 1.02216
                                   CHANNELS 3 Zrotation Xrotation Yrotation
                                   End Site
                                   {
                                        OFFSET -16.63120 -0.60000 1.50291
                                   }
                              }
                         }
                    }
               }
          }
     }
     JOINT LeftUpLeg
     {
          OFFSET 8.94580 -8.66707 0.10165
          CHANNELS 3 Zrotation Xrotation Yrotation
          JOINT LeftLeg
          {
               OFFSET 0.00000 -44.42270 1.37270
               CHANNELS 3 Zrotation Xrotation Yrotation
               JOINT LeftFoot
               {
                    OFFSET -0.25355 -42.09240 -1.46059
                    CHANNELS 3 Zrotation Xrotation Yrotation
                    JOINT LeftToes
                    {
                         OFFSET -0.04000 -4.41509 8.49910
                         CHANNELS 3 Zrotation Xrotation Yrotation
                         End Site
                         {
                              OFFSET 0.08000 -0.04745 9.77979
                         }
                    }
               }
          }
     }
     JOINT RightUpLeg
     {
          OFFSET -8.94580 -8.66707 0.10165
          CHANNELS 3 Zrotation Xrotation Yrotation
          JOINT RightLeg
          {
               OFFSET 0.00000 -44.42270 1.37270
               CHANNELS 3 Zrotation Xrotation Yrotation
               JOINT RightFoot
               {
                    OFFSET 0.25355 -42.09240 -1.46059
                    CHANNELS 3 Zrotation Xrotation Yrotation
                    JOINT RightToes
                    {
                         OFFSET 0.04000 -4.41509 8.49910
                         CHANNELS 3 Zrotation Xrotation Yrotation
                         End Site
                         {
                              OFFSET -0.08000 -0.13745 9.77979
                         }
                    }
               }
          }
     }
}
MOTION
Frames: 15
Frame Time: 0.01667
44.08791 86.73564 -122.05461 -2.03133 4.42489 -16.70135 -6.85584 8.24592 5.35522 0.00904 -0.00617 -0.00586 -7.03458 4.18088 22.12578 0.53497 1.68700 1.18647 -97.96059 -22.64227 -84.21429 1.92128 38.22345 -108.79173 31.75768 4.28152 -18.92470 30.69521 5.49101 8.85746 50.88594 2.49779 66.73505 2.94359 32.38333 101.10415 -32.90513 9.51120 -2.11173 17.30010 -40.47028 18.18676 9.68532 45.26226 -16.82597 -4.12586 -0.00011 -0.00411 3.88494 8.55481 7.66002 -12.95505 -16.95812 -2.95731 11.90916 49.31921 -31.98276 4.92598 -0.28103 -0.03668 9.78147 -4.82004 10.12829 
43.61934 85.33694 -123.09901 -1.97203 4.16036 -16.82248 -6.91756 8.55697 5.73631 0.00751 -0.00545 -0.00548 -7.04775 3.99346 21.82003 0.71631 1.28821 0.85056 -97.83862 -23.07643 -83.92808 1.85209 38.28062 -108.99248 31.91237 4.18462 -19.01665 30.63451 4.94807 8.70869 50.22245 2.56629 66.70325 3.40576 32.52162 100.98695 -33.38534 9.25077 -1.56260 19.96001 -42.39623 19.21543 7.73377 48.61725 -15.46762 -4.76946 0.00147 -0.00494 5.32280 7.96832 6.63609 -13.44816 -17.12375 -3.10203 10.07583 52.58698 -35.20380 3.42983 -0.22367 -0.00633 1.46016 1.20607 4.60115 
43.10822 83.76534 -124.25914 -1.97385 3.82509 -17.06699 -6.88400 8.83081 6.14687 0.00648 -0.00486 -0.00520 -7.02717 3.78082 21.57117 0.93550 0.94634 0.52045 -97.73663 -23.61779 -83.80136 1.62665 38.29606 -108.90678 31.98069 4.01817 -19.42212 30.43682 4.46693 8.60919 49.56903 2.69460 66.88256 4.05089 32.62510 100.59946 -33.71405 8.95415 -0.73691 22.65544 -44.10190 20.34901 5.60648 51.95163 -13.62648 -5.38956 0.00301 -0.00454 6.90196 7.22697 5.42951 -13.95523 -17.14674 -3.11665 7.73981 55.92724 -37.39658 0.34722 -0.27591 -0.02578 12.38739 -2.23071 13.15869 
42.59959 82.08294 -125.41924 -2.00806 3.39897 -17.39902 -6.78092 9.08880 6.54698 0.00586 -0.00445 -0.00507 -6.97381 3.53403 21.38152 1.16380 0.67125 0.21872 -97.62941 -24.23725 -83.81837 1.26890 38.29247 -108.57243 32.06624 3.80267 -19.74134 30.07458 4.05468 8.52057 48.92861 2.87750 67.29360 4.85270 32.69776 100.00519 -34.03394 8.73297 0.03812 25.36113 -45.59247 21.54408 3.35818 55.16620 -11.40980 -6.08275 0.00452 -0.00406 8.57238 6.40407 4.11622 -15.43700 -17.00262 -3.37481 9.87314 60.00904 -42.12805 -3.18060 -0.16527 -0.10529 1.47912 2.13672 3.51416 
42.10365 80.31822 -126.54036 -2.06102 2.88112 -17.81104 -6.61719 9.32881 6.92676 0.00549 -0.00418 -0.00512 -6.88937 3.25182 21.25166 1.37376 0.48224 -0.02126 -97.49519 -24.90599 -83.94734 0.80831 38.29282 -108.06339 32.12157 3.55722 -20.26645 29.52329 3.72885 8.40087 48.29605 3.09264 67.94879 5.77593 32.74695 99.29657 -34.19607 8.53180 0.99415 28.07806 -46.87306 22.78697 1.01214 58.21883 -8.90373 -6.89811 0.00610 -0.00363 10.26075 5.55416 2.75288 -17.85551 -16.44134 -3.81376 13.73014 64.84832 -46.47611 0.50009 0.02583 0.16994 3.50597 -2.89357 11.31373 
41.52275 78.43170 -127.76702 -2.12861 2.24040 -18.29033 -6.23169 9.28379 6.90944 0.00783 -0.00385 -0.00447 -5.98770 2.08317 21.11844 1.51445 0.65234 0.12530 -97.35796 -25.71747 -84.10129 0.27276 38.34680 -107.52710 32.09406 3.40944 -20.94640 28.89683 3.91183 8.10034 44.60251 2.54531 71.91775 9.99421 30.45343 95.88821 -34.14251 8.50592 2.29079 30.86601 -47.94817 24.07230 -1.41028 61.06327 -6.24166 -7.91598 0.00823 -0.00235 11.76275 4.85242 1.43491 -20.91372 -15.71677 -4.24016 22.84301 69.28783 -55.19609 3.91877 0.09774 0.16100 -13.61930 -3.33605 -2.26787 
40.91333 76.60539 -128.97798 -2.22497 1.52670 -18.86379 -5.65716 8.97909 6.58737 0.00596 -0.00021 -0.00020 -4.31643 0.14921 21.00084 1.50327 1.17410 0.66905 -97.13781 -26.63380 -84.25954 -0.32977 38.41405 -107.01620 32.32051 3.26789 -21.26557 27.84287 4.52186 8.02450 42.26375 2.23998 74.48047 12.38701 29.33140 94.26966 -34.60120 8.41022 2.94998 33.75806 -48.80330 25.40836 -3.87852 63.60315 -3.51445 -9.15202 0.00976 -0.00001 12.99146 4.51493 0.29645 -23.55245 -15.09058 -4.34728 27.52850 71.64615 -59.25113 -13.24668 -0.41549 -0.28801 10.53270 -6.07936 6.50538 
40.23944 74.91324 -130.28838 -2.36477 0.78427 -19.54637 -5.06504 8.71902 6.39652 0.00444 0.00042 0.00048 -2.80096 -1.55118 20.97880 1.50221 1.66406 1.17088 -96.86980 -27.73738 -84.34071 -0.98338 38.48557 -106.58839 32.50391 3.18689 -21.63360 26.49813 5.02999 8.02262 40.91607 2.04810 76.21828 13.86877 28.92577 93.55439 -34.95091 8.36277 3.75534 36.72240 -49.40794 26.74053 -6.35036 65.69643 -0.81199 -10.60108 0.01047 0.00418 13.95737 4.73665 -0.52803 -25.83600 -14.39087 -4.16846 31.13420 73.11018 -61.72786 -5.23813 0.00883 0.13785 -0.05166 -6.34586 2.57709 
39.47873 73.45374 -131.75713 -2.55472 0.05254 -20.34640 -4.44775 8.48076 6.34029 0.00294 0.00135 0.00085 -1.43758 -3.01254 21.03552 1.50987 2.08966 1.58417 -96.55931 -29.07114 -84.25262 -1.68373 38.54443 -106.23955 32.88385 3.07190 -21.66147 24.98685 5.42146 8.09243 40.21613 1.91038 77.45691 14.90386 28.88658 93.24891 -35.48564 8.23377 4.08101 39.72598 -49.42660 26.92792 -11.37187 66.71963 4.40733 -12.22881 0.00918 0.01072 14.70712 5.75267 -0.84264 -27.80068 -13.55125 -3.72811 33.11051 73.88778 -62.40950 -8.62302 -0.05217 -0.01176 5.57797 -6.51085 3.96884 
38.60994 72.30895 -133.41025 -2.79018 -0.63494 -21.24247 -3.80788 8.24904 6.39268 0.00156 0.00193 0.00131 -0.22903 -4.21873 21.16089 1.51005 2.42337 1.89927 -96.18775 -30.61412 -83.87262 -2.40453 38.57826 -105.97441 33.30550 2.93600 -21.65497 23.42989 5.68833 8.24738 39.91459 1.82380 78.33131 15.71638 28.99791 93.08115 -35.95229 8.07490 4.45497 42.11414 -48.85124 25.56589 -14.69340 65.06721 7.83449 -15.26171 -0.00553 0.06446 15.37178 9.00257 0.00546 -29.43018 -12.61068 -3.05892 34.05374 73.95310 -61.88496 -6.39347 -0.01591 0.01731 3.21385 -5.68450 2.49306 
37.62211 71.52925 -135.24789 -3.06219 -1.24982 -22.21796 -3.15166 7.97801 6.53217 0.00025 -0.00176 0.00169 0.81797 -5.11255 21.34751 1.47829 2.23255 2.10045 -95.42070 -32.35952 -82.55103 -3.09639 38.57286 -105.79423 33.91834 2.72113 -21.44182 21.95711 5.86347 8.48854 39.80925 1.82664 78.85918 16.38724 29.14589 92.90626 -36.59343 7.83286 4.55076 43.46071 -47.71659 22.48572 -16.47098 61.48115 9.58660 -19.22532 -0.06903 0.10361 15.92458 13.60088 2.53150 -30.70370 -11.60299 -2.18832 34.19880 73.33467 -60.54913 -7.01316 -0.02132 0.00473 4.76933 -5.14061 2.04272 
36.51814 71.09910 -137.25967 -3.35855 -1.77775 -23.25201 -2.48991 7.67824 6.73844 -0.00061 -0.00004 0.00228 1.68884 -5.70087 21.58298 1.39727 2.14907 2.23185 -94.63793 -34.09158 -80.94648 -3.68360 38.52425 -105.72678 34.57393 2.44452 -21.28015 20.69998 5.92953 8.82575 39.72561 1.97927 79.00201 16.91619 29.29137 92.68176 -37.28704 7.54789 4.73614 43.60427 -46.00214 17.80541 -16.62149 56.11222 9.15927 -3.71712 0.51819 -0.45370 -10.75323 29.20576 22.52143 -31.57937 -10.54332 -1.13701 29.36400 71.09059 -53.72709 -3.12830 -0.13841 -0.03198 0.97919 -2.69821 0.33319 
35.14955 71.05031 -139.63002 -3.65618 -2.26494 -24.29690 -1.84393 7.38885 6.95548 0.00123 -0.00008 0.00116 2.34072 -5.93357 21.85898 1.23308 2.16270 2.30761 -93.81937 -35.60659 -78.78546 -3.97039 38.43791 -106.00360 35.48074 2.03836 -20.78800 20.14265 5.78656 9.17629 39.19822 2.56137 78.45023 17.23509 29.44187 92.53633 -38.56649 7.12404 4.63902 42.52393 -43.65105 11.76134 -15.62487 49.72065 7.67066 11.03331 0.48711 -0.62703 -28.00861 27.47562 20.50906 -31.82007 -8.74061 0.63323 30.09178 67.35957 -52.71935 -0.14638 -0.04676 -0.01650 -2.38571 -3.30110 -0.99105 
33.73302 71.18504 -142.01250 -3.95782 -2.72312 -25.32894 -1.19608 7.11874 7.16247 0.00164 0.00122 0.00144 2.76411 -5.82917 22.15201 0.98350 2.25449 2.39973 -92.97363 -36.74532 -76.17684 -3.91377 38.31196 -106.57700 35.94017 1.74223 -20.82837 20.14133 5.70513 9.47262 38.31698 3.44699 77.43519 17.31657 29.61933 92.44367 -39.31359 6.70852 4.95097 40.53239 -40.61402 4.79649 -13.19945 43.10273 6.07027 -2.19589 -0.32096 0.51697 -24.18288 33.85069 30.64059 -31.69932 -7.51144 2.46689 34.30350 62.91904 -53.20278 1.19611 -0.04703 -0.01749 5.78682 -17.01320 -2.47667 
32.24768 71.43514 -144.44873 -4.25058 -3.18831 -26.32500 -0.54258 6.89297 7.33396 0.00216 0.00248 0.00147 2.94158 -5.41244 22.45071 1.08840 2.42410 2.38728 -91.36618 -36.91273 -69.04644 -0.57060 36.98168 -111.75107 36.23287 1.39324 -20.72175 20.68618 5.77226 9.64995 37.05379 4.65549 76.02619 17.13003 29.83878 92.45355 -40.37589 6.13347 5.27744 38.76238 -37.63593 -1.41674 -11.64096 38.26230 6.54474 -1.54849 0.02182 0.03178 -30.06250 33.24897 33.27546 -31.41119 -6.79652 4.29863 38.89463 59.39444 -54.42391 2.78174 -0.05305 0.00701 -4.25442 -12.16896 -5.95076 
